<svg version="1.1" id="Layer_1" xmlns="http://www.w3.org/2000/svg" xmlns:xlink="http://www.w3.org/1999/xlink" x="0px" y="0px"
	 width="100%" viewBox="0 0 256 249" enable-background="new 0 0 256 249" xml:space="preserve">
<path fill="#010101" opacity="1.000000" stroke="none" 
	d="
M175.000000,250.000000 
	C116.666672,250.000000 58.833340,250.000000 1.000008,250.000000 
	C1.000005,167.000015 1.000005,84.000015 1.000003,1.000019 
	C86.333321,1.000013 171.666641,1.000013 257.000000,1.000006 
	C257.000000,83.999977 257.000000,166.999954 257.000000,249.999969 
	C229.833328,250.000000 202.666672,250.000000 175.000000,250.000000 
M115.496613,64.108780 
	C114.969894,65.398506 114.443176,66.688240 113.895538,68.817032 
	C113.628128,70.934906 113.156334,73.050171 113.129150,75.171120 
	C113.018852,83.777504 113.045128,92.385651 112.566551,101.298836 
	C112.585815,101.703300 112.605080,102.107758 112.624344,102.512230 
	C113.098816,102.295341 113.573288,102.078453 114.820007,101.732079 
	C116.550995,102.114075 118.281990,102.496071 120.080437,103.577354 
	C123.067627,105.376106 126.054817,107.174858 128.997604,108.997284 
	C128.997604,108.997284 129.027481,108.956512 128.985458,109.784119 
	C129.876862,113.479431 129.396881,117.783806 133.812973,120.848732 
	C133.772156,122.558647 133.731323,124.268570 133.161072,126.061188 
	C133.331940,126.715141 133.502808,127.369102 133.876785,128.796890 
	C133.934875,129.859406 133.992981,130.921921 133.455688,132.264954 
	C133.368652,134.101013 133.281601,135.937073 133.172318,138.242493 
	C132.299179,138.719894 131.019119,139.419769 129.134613,139.739090 
	C124.993660,134.044617 125.431442,127.545052 126.377815,120.701744 
	C126.012558,119.794075 125.647308,118.886406 124.912270,117.341919 
	C123.258194,115.269180 121.604118,113.196442 119.929245,110.507317 
	C119.266479,110.400734 118.603714,110.294151 117.151840,110.204277 
	C115.842003,110.166908 114.532173,110.129539 112.468475,110.142960 
	C109.877342,114.082268 109.978325,115.861107 113.057297,117.928192 
	C113.055939,138.613144 113.054573,159.298096 112.585678,180.272339 
	C112.974129,180.854630 113.362579,181.436905 114.117050,182.548950 
	C114.425095,183.337326 114.733139,184.125687 114.738960,185.550446 
	C113.073921,190.595734 115.899872,190.625076 120.027931,189.888809 
	C120.750648,190.425812 121.473373,190.962830 122.160759,192.273529 
	C123.779312,192.497208 125.397873,192.720886 127.680504,192.767944 
	C128.118759,192.866058 128.557007,192.964172 129.120132,193.770859 
	C132.204056,194.946411 135.027420,195.094650 137.081543,191.654129 
	C137.081543,191.654129 137.245789,191.629150 138.008011,191.812408 
	C138.671295,191.200363 139.334564,190.588333 140.341782,189.403610 
	C142.293411,186.408096 145.722031,183.510391 145.928040,180.399292 
	C146.630096,169.797134 146.196686,159.119781 146.196686,148.913345 
	C142.871979,147.863312 139.934509,146.935577 136.940063,145.326691 
	C136.145340,144.197571 135.350616,143.068451 134.724365,142.178680 
	C135.632217,140.392258 136.467865,138.747894 138.044022,137.320206 
	C140.666397,138.302628 143.288773,139.285065 145.886887,140.258408 
	C146.396683,138.904617 146.611328,138.600372 146.611649,138.295883 
	C146.634155,116.669815 146.793335,95.041504 146.478928,73.420090 
	C146.432327,70.214859 144.765106,66.571884 142.774887,63.943798 
	C137.081406,56.425495 127.868301,55.845978 118.049644,61.175243 
	C117.408264,61.014668 116.766884,60.854092 116.125511,60.693516 
	C116.126663,61.849003 116.127815,63.004494 116.040268,64.058281 
	C116.040268,64.058281 116.163437,64.113403 115.496613,64.108780 
M85.700188,187.158173 
	C87.040413,183.164185 89.506210,179.180695 89.543549,175.174561 
	C89.854202,141.844269 89.736023,108.509773 89.703804,75.176582 
	C89.693703,64.726143 82.706436,57.687923 72.608261,57.793701 
	C62.926685,57.895115 56.164230,65.071136 56.159721,75.305641 
	C56.145115,108.472176 56.214249,141.638962 56.092056,174.805069 
	C56.063938,182.436752 58.914364,188.312637 65.861328,191.309280 
	C72.834190,194.317078 79.579475,193.262772 85.700188,187.158173 
M202.756866,69.033913 
	C198.672577,60.069000 191.683640,56.268604 182.719116,58.137928 
	C174.950409,59.757893 170.053772,66.662979 170.052383,76.041740 
	C170.047546,109.031349 169.984024,142.021286 170.152390,175.010040 
	C170.169495,178.359192 170.919846,182.075867 172.513062,184.970886 
	C176.194031,191.659576 183.847061,194.233368 191.588089,192.189926 
	C198.555115,190.350830 203.522705,183.881989 203.535889,176.220886 
	C203.594086,142.398315 203.586349,108.575615 203.562164,74.752991 
	C203.560989,73.106537 203.179001,71.460365 202.756866,69.033913 
z"/>
<path fill="#F8F8F8" opacity="1.000000" stroke="none" 
	d="
M85.458252,187.426300 
	C79.579475,193.262772 72.834190,194.317078 65.861328,191.309280 
	C58.914364,188.312637 56.063938,182.436752 56.092056,174.805069 
	C56.214249,141.638962 56.145115,108.472176 56.159721,75.305641 
	C56.164230,65.071136 62.926685,57.895115 72.608261,57.793701 
	C82.706436,57.687923 89.693703,64.726143 89.703804,75.176582 
	C89.736023,108.509773 89.854202,141.844269 89.543549,175.174561 
	C89.506210,179.180695 87.040413,183.164185 85.458252,187.426300 
z"/>
<path fill="#F8F8F8" opacity="1.000000" stroke="none" 
	d="
M202.865616,69.423981 
	C203.179001,71.460365 203.560989,73.106537 203.562164,74.752991 
	C203.586349,108.575615 203.594086,142.398315 203.535889,176.220886 
	C203.522705,183.881989 198.555115,190.350830 191.588089,192.189926 
	C183.847061,194.233368 176.194031,191.659576 172.513062,184.970886 
	C170.919846,182.075867 170.169495,178.359192 170.152390,175.010040 
	C169.984024,142.021286 170.047546,109.031349 170.052383,76.041740 
	C170.053772,66.662979 174.950409,59.757893 182.719116,58.137928 
	C191.683640,56.268604 198.672577,60.069000 202.865616,69.423981 
z"/>
<path fill="#F6F6F6" opacity="1.000000" stroke="none" 
	d="
M122.196091,191.499847 
	C121.473373,190.962830 120.750648,190.425812 119.607063,189.543716 
	C117.804527,187.770432 116.422852,186.342255 115.041183,184.914062 
	C114.733139,184.125687 114.425095,183.337326 113.975464,181.997894 
	C113.573654,180.958893 113.313431,180.470978 113.053207,179.983047 
	C113.054573,159.298096 113.055939,138.613144 113.077377,117.050690 
	C113.139084,114.146187 113.180710,112.119179 113.222336,110.092171 
	C114.532173,110.129539 115.842003,110.166908 117.711563,110.440392 
	C118.830879,110.825569 119.390457,110.974640 119.950043,111.123711 
	C121.604118,113.196442 123.258194,115.269180 125.034653,117.977280 
	C125.387474,119.424812 125.617912,120.236992 125.848358,121.049164 
	C125.431442,127.545052 124.993660,134.044617 129.521118,140.261871 
	C132.270767,142.525711 134.633896,144.266769 136.997040,146.007843 
	C139.934509,146.935577 142.871979,147.863312 146.196686,148.913345 
	C146.196686,159.119781 146.630096,169.797134 145.928040,180.399292 
	C145.722031,183.510391 142.293411,186.408096 139.837875,189.715637 
	C138.637909,190.561493 137.941849,191.095322 137.245789,191.629150 
	C137.245789,191.629150 137.081543,191.654129 136.621124,191.703003 
	C133.772232,192.188675 131.383759,192.625473 128.995270,193.062286 
	C128.557007,192.964172 128.118759,192.866058 127.075378,192.616119 
	C125.045532,192.142822 123.620811,191.821335 122.196091,191.499847 
z"/>
<path fill="#F5F5F5" opacity="1.000000" stroke="none" 
	d="
M120.012978,102.878067 
	C118.281990,102.496071 116.550995,102.114075 114.354370,101.568222 
	C113.634949,101.192482 113.345711,101.055412 113.021027,100.993141 
	C113.045128,92.385651 113.018852,83.777504 113.129150,75.171120 
	C113.156334,73.050171 113.628128,70.934906 114.158432,68.192963 
	C115.002022,66.417068 115.582726,65.265236 116.163437,64.113403 
	C116.163437,64.113403 116.040268,64.058281 116.347893,64.025841 
	C117.194878,63.268478 117.734238,62.543560 118.273590,61.818638 
	C127.868301,55.845978 137.081406,56.425495 142.774887,63.943798 
	C144.765106,66.571884 146.432327,70.214859 146.478928,73.420090 
	C146.793335,95.041504 146.634155,116.669815 146.611649,138.295883 
	C146.611328,138.600372 146.396683,138.904617 145.886887,140.258408 
	C143.288773,139.285065 140.666397,138.302628 137.582275,136.925308 
	C136.097366,135.015091 135.074234,133.499756 134.051086,131.984436 
	C133.992981,130.921921 133.934875,129.859406 133.887207,128.075867 
	C133.828598,126.896065 133.759537,126.437279 133.690491,125.978485 
	C133.731323,124.268570 133.772156,122.558647 133.760223,120.068222 
	C132.147476,115.843979 130.587479,112.400246 129.027481,108.956512 
	C129.027481,108.956512 128.997604,108.997284 128.945297,108.650574 
	C125.932983,106.495262 122.972984,104.686661 120.012978,102.878067 
z"/>
<path fill="#0F0F0F" opacity="1.000000" stroke="none" 
	d="
M133.753387,132.124695 
	C135.074234,133.499756 136.097366,135.015091 137.212006,136.816971 
	C136.467865,138.747894 135.632217,140.392258 134.724365,142.178680 
	C135.350616,143.068451 136.145340,144.197571 136.968552,145.667267 
	C134.633896,144.266769 132.270767,142.525711 129.823349,140.452148 
	C131.019119,139.419769 132.299179,138.719894 133.172318,138.242493 
	C133.281601,135.937073 133.368652,134.101013 133.753387,132.124695 
z"/>
<path fill="#0F0F0F" opacity="1.000000" stroke="none" 
	d="
M129.006470,109.370316 
	C130.587479,112.400246 132.147476,115.843979 133.622986,119.661652 
	C129.396881,117.783806 129.876862,113.479431 129.006470,109.370316 
z"/>
<path fill="#0F0F0F" opacity="1.000000" stroke="none" 
	d="
M120.046707,103.227707 
	C122.972984,104.686661 125.932983,106.495262 128.967499,108.638741 
	C126.054817,107.174858 123.067627,105.376106 120.046707,103.227707 
z"/>
<path fill="#0F0F0F" opacity="1.000000" stroke="none" 
	d="
M112.845406,110.117569 
	C113.180710,112.119179 113.139084,114.146187 112.977921,116.592072 
	C109.978325,115.861107 109.877342,114.082268 112.845406,110.117569 
z"/>
<path fill="#0F0F0F" opacity="1.000000" stroke="none" 
	d="
M114.890076,185.232254 
	C116.422852,186.342255 117.804527,187.770432 119.337265,189.500702 
	C115.899872,190.625076 113.073921,190.595734 114.890076,185.232254 
z"/>
<path fill="#0F0F0F" opacity="1.000000" stroke="none" 
	d="
M129.057709,193.416565 
	C131.383759,192.625473 133.772232,192.188675 136.566528,191.765610 
	C135.027420,195.094650 132.204056,194.946411 129.057709,193.416565 
z"/>
<path fill="#0F0F0F" opacity="1.000000" stroke="none" 
	d="
M122.178421,191.886688 
	C123.620811,191.821335 125.045532,192.142822 126.743340,192.704437 
	C125.397873,192.720886 123.779312,192.497208 122.178421,191.886688 
z"/>
<path fill="#0F0F0F" opacity="1.000000" stroke="none" 
	d="
M118.161621,61.496941 
	C117.734238,62.543560 117.194878,63.268478 116.392242,64.076691 
	C116.127815,63.004494 116.126663,61.849003 116.125504,60.693516 
	C116.766884,60.854092 117.408264,61.014668 118.161621,61.496941 
z"/>
<path fill="#0F0F0F" opacity="1.000000" stroke="none" 
	d="
M115.830017,64.111092 
	C115.582726,65.265236 115.002022,66.417068 114.168884,67.773438 
	C114.443176,66.688240 114.969894,65.398506 115.830017,64.111092 
z"/>
<path fill="#0F0F0F" opacity="1.000000" stroke="none" 
	d="
M126.113083,120.875458 
	C125.617912,120.236992 125.387474,119.424812 125.219543,118.295685 
	C125.647308,118.886406 126.012558,119.794075 126.113083,120.875458 
z"/>
<path fill="#0F0F0F" opacity="1.000000" stroke="none" 
	d="
M133.425781,126.019836 
	C133.759537,126.437279 133.828598,126.896065 133.785660,127.688950 
	C133.502808,127.369102 133.331940,126.715141 133.425781,126.019836 
z"/>
<path fill="#0F0F0F" opacity="1.000000" stroke="none" 
	d="
M112.819443,180.127686 
	C113.313431,180.470978 113.573654,180.958893 113.792450,181.733002 
	C113.362579,181.436905 112.974129,180.854630 112.819443,180.127686 
z"/>
<path fill="#0F0F0F" opacity="1.000000" stroke="none" 
	d="
M137.626892,191.720779 
	C137.941849,191.095322 138.637909,190.561493 139.665909,190.001968 
	C139.334564,190.588333 138.671295,191.200363 137.626892,191.720779 
z"/>
<path fill="#0F0F0F" opacity="1.000000" stroke="none" 
	d="
M119.939644,110.815514 
	C119.390457,110.974640 118.830879,110.825569 118.106125,110.432037 
	C118.603714,110.294151 119.266479,110.400734 119.939644,110.815514 
z"/>
<path fill="#0F0F0F" opacity="1.000000" stroke="none" 
	d="
M112.793793,101.145988 
	C113.345711,101.055412 113.634949,101.192482 113.968246,101.632965 
	C113.573288,102.078453 113.098816,102.295341 112.624344,102.512222 
	C112.605080,102.107758 112.585815,101.703300 112.793793,101.145988 
z"/>
</svg>